<?xml version="1.0" encoding="iso-8859-1"?>
<!-- Uploaded to: SVG Repo, www.svgrepo.com, Generator: SVG Repo Mixer Tools -->
<svg fill="#000000" height="800px" width="800px" version="1.1" id="Layer_1" xmlns="http://www.w3.org/2000/svg" xmlns:xlink="http://www.w3.org/1999/xlink" 
	 viewBox="0 0 512 512" xml:space="preserve">
<g>
	<g>
		<path d="M172.795,164.932l-3.404-1.547c-5.127-2.327-11.174-0.062-13.505,5.067c-2.329,5.128-0.061,11.173,5.067,13.505
			l3.404,1.547c1.369,0.621,2.802,0.916,4.213,0.916c3.877,0,7.583-2.223,9.292-5.983
			C180.191,173.309,177.924,167.263,172.795,164.932z"/>
	</g>
</g>
<g>
	<g>
		<path d="M474.744,151.481c-2.089-9.209-7.67-17.32-15.823-22.57c-10.486-6.751-23.526-7.702-34.88-2.54l-124.382,56.537h-90.775
			c-23.152,0-41.988,18.837-41.988,41.989v62.444c0,13.267,6.192,25.108,15.829,32.809L79.518,367.06
			c-5.087,2.313-10.698,1.903-15.397-1.122c-2.364-1.523-4.219-3.531-5.481-5.862c19.802-5.344,34.42-23.454,34.42-44.921V197.081
			c0-21.506-14.669-39.643-34.523-44.952c1.263-2.417,3.153-4.501,5.585-6.066c4.698-3.026,10.309-3.432,15.397-1.122l49.651,22.568
			c5.126,2.331,11.174,0.064,13.505-5.065c2.332-5.127,0.064-11.174-5.065-13.505l-49.65-22.568
			c-11.354-5.163-24.393-4.211-34.88,2.54c-8.153,5.25-13.735,13.361-15.823,22.57C16.027,155.792,0,174.599,0,197.081v118.074
			c0,22.5,16.055,41.319,37.31,45.609c2.132,9.108,7.688,17.121,15.769,22.325c6.01,3.87,12.858,5.834,19.748,5.833
			c5.131,0,10.286-1.089,15.133-3.293l123.863-56.301h88.356l123.863,56.301c4.848,2.204,10.001,3.293,15.134,3.293
			c6.888,0,13.737-1.964,19.747-5.833c8.081-5.204,13.637-13.217,15.769-22.325c21.255-4.29,37.31-23.108,37.31-45.609V197.081
			C512,174.599,495.973,155.792,474.744,151.481z M46.53,341.287c-14.408,0-26.131-11.722-26.131-26.131V197.081
			c0-14.409,11.723-26.132,26.131-26.132c14.409,0,26.132,11.723,26.132,26.132v118.074
			C72.662,329.565,60.939,341.287,46.53,341.287z M224.383,308.931h-15.499c-11.905,0-21.59-9.685-21.59-21.591v-62.444h-0.001
			c0-11.906,9.685-21.591,21.59-21.591h15.5V308.931z M267.219,308.931h-22.438V203.306h22.438V308.931z M303.117,308.931h-15.5
			V203.306h15.499c11.904,0,21.59,9.685,21.59,21.591v62.444h0.001C324.707,299.246,315.022,308.931,303.117,308.931z
			 M447.879,365.938c-4.698,3.025-10.31,3.432-15.397,1.122l-103.207-46.911c9.638-7.7,15.829-19.542,15.829-32.809v-62.444
			c0-13.354-6.273-25.262-16.02-32.958l103.396-46.998c5.088-2.313,10.698-1.904,15.397,1.122c2.432,1.567,4.322,3.649,5.585,6.066
			c-19.855,5.309-34.523,23.446-34.523,44.952v118.074c0,21.467,14.617,39.577,34.42,44.921
			C452.098,362.408,450.243,364.417,447.879,365.938z M491.602,315.156c0,14.409-11.723,26.131-26.131,26.131
			c-14.409,0-26.132-11.722-26.132-26.131V197.081c0-14.409,11.723-26.132,26.132-26.132c14.408,0,26.131,11.723,26.131,26.132
			V315.156z"/>
	</g>
</g>
</svg>